<?xml version="1.0" encoding="UTF-8" standalone="no"?>
<!-- Created with Inkscape (http://www.inkscape.org/) -->

<svg
   width="210mm"
   height="297mm"
   viewBox="0 0 210 297"
   version="1.1"
   id="svg5"
   xml:space="preserve"
   inkscape:version="1.2.2 (b0a84865, 2022-12-01)"
   sodipodi:docname="logo.svg"
   inkscape:export-filename="logo.png"
   inkscape:export-xdpi="300"
   inkscape:export-ydpi="300"
   xmlns:inkscape="http://www.inkscape.org/namespaces/inkscape"
   xmlns:sodipodi="http://sodipodi.sourceforge.net/DTD/sodipodi-0.dtd"
   xmlns="http://www.w3.org/2000/svg"
   xmlns:svg="http://www.w3.org/2000/svg"><sodipodi:namedview
     id="namedview7"
     pagecolor="#ffffff"
     bordercolor="#000000"
     borderopacity="0.25"
     inkscape:showpageshadow="2"
     inkscape:pageopacity="0.0"
     inkscape:pagecheckerboard="0"
     inkscape:deskcolor="#d1d1d1"
     inkscape:document-units="mm"
     showgrid="false"
     inkscape:zoom="1.1049205"
     inkscape:cx="442.5658"
     inkscape:cy="253.86443"
     inkscape:window-width="1920"
     inkscape:window-height="1027"
     inkscape:window-x="1920"
     inkscape:window-y="25"
     inkscape:window-maximized="0"
     inkscape:current-layer="layer1"><inkscape:grid
       type="xygrid"
       id="grid314" /></sodipodi:namedview><defs
     id="defs2" /><g
     inkscape:label="Layer 1"
     inkscape:groupmode="layer"
     id="layer1"><text
       xml:space="preserve"
       style="font-weight:bold;font-size:49.0216px;font-family:Futura;-inkscape-font-specification:'Futura Bold';text-align:center;text-anchor:middle;fill:#00c887;stroke:none;stroke-width:20.7837;stroke-dasharray:none;stroke-opacity:1;paint-order:fill markers stroke"
       x="39.568012"
       y="133.73561"
       id="text1409"
       transform="scale(1.3563731,0.73726026)"><tspan
         sodipodi:role="line"
         id="tspan1407"
         style="font-style:italic;font-variant:normal;font-weight:500;font-stretch:normal;font-family:Futura;-inkscape-font-specification:'Futura Medium Italic';stroke:none;stroke-width:20.7837;stroke-dasharray:none"
         x="39.568012"
         y="133.73561">[<tspan
   style="font-size:15.0293px;stroke-width:20.7837"
   id="tspan1588"><tspan
   style="font-size:11.2889px"
   id="tspan7309"> </tspan>     </tspan>]</tspan></text><path
       style="fill:#e1f6e9;stroke-width:0.200289;fill-opacity:1"
       d="m 25.115791,100.0641 c 0,-0.161675 1.466972,-6.110993 3.154418,-13.236568 l 3.068086,-12.9556 h 10.622364 c 10.028492,0 10.617485,0.02158 10.535129,0.385912 -0.04798,0.212251 -0.976189,4.132008 -2.062693,8.710571 l -1.975461,8.324652 H 40.95377 33.449905 l -0.284345,1.18571 c -0.15639,0.65214 -0.632312,2.66163 -1.057605,4.46555 l -0.77326,3.279853 -3.152618,0.0605 c -2.493832,0.0479 -3.066286,0.0122 -3.066286,-0.22053 z m 17.87265,-12.295982 c 0.157122,-0.308172 2.457547,-9.948327 2.457547,-10.298575 0,-0.23117 -0.865641,-0.289799 -4.278852,-0.289799 -4.264597,0 -4.27943,0.0017 -4.452511,0.496172 -0.221207,0.632017 -2.36532,9.766639 -2.36532,10.077037 0,0.308303 8.482097,0.323195 8.639136,0.01524 z m 8.892869,12.180399 c 0.869431,-3.61205 6.116663,-25.88832 6.116663,-25.967309 0,-0.0601 6.066571,-0.109275 13.481271,-0.109275 h 9.052657 l -0.12329,0.606432 c -0.06781,0.333538 -1.263664,5.435406 -2.657456,11.33748 -1.393793,5.902092 -2.534169,10.789372 -2.534169,10.860652 0,0.0713 0.704691,0.1296 1.565981,0.1296 h 1.56598 l -0.122221,0.60643 c -0.06722,0.33354 -0.24563,1.12742 -0.396454,1.76416 l -0.274235,1.157743 H 66.886534 c -14.293267,0 -15.093162,-0.0206 -15.005224,-0.385913 z m 19.184464,-12.29403 c 1.176312,-4.972751 2.191372,-9.363869 2.25567,-9.75805 l 0.116905,-0.716693 h -2.690133 -7.118745 l -0.179545,0.496172 c -0.174012,0.480881 -4.542388,18.764771 -4.542388,19.012211 0,0.0676 3.250818,0.0971 7.22404,0.0654 l 2.795429,-0.0576 z"
       id="path438"
       sodipodi:nodetypes="sscssscccssccsscsssscccsscsssscsscscsscccssccs" /><text
       xml:space="preserve"
       style="font-style:normal;font-variant:normal;font-weight:bold;font-stretch:normal;font-size:24.4062px;line-height:0;font-family:Futura;-inkscape-font-specification:'Futura Bold';text-align:center;text-anchor:middle;fill:#00c887;stroke-width:10.4259;stroke-linejoin:round"
       x="123.20028"
       y="128.70299"
       id="text596"
       transform="scale(1.0502661,0.95213965)"><tspan
         sodipodi:role="line"
         id="tspan594"
         style="font-style:normal;font-variant:normal;font-weight:bold;font-stretch:normal;font-family:Futura;-inkscape-font-specification:'Futura Bold';stroke-width:10.4259"
         x="123.20028"
         y="128.70299">2025</tspan></text><path
       d="m 118.1862,100.3567 c 0,-0.1526 4.5946,-19.657286 5.83938,-24.789016 l 0.36107,-1.48852 h 9.1789 c 5.0484,0 9.1789,0.0569 9.1789,0.12637 0,0.0913 -5.2279,22.27205 -6.11634,25.950226 -0.0841,0.34789 -0.39668,0.38591 -3.17348,0.38591 -1.69414,0 -3.08026,-0.0745 -3.08026,-0.16562 0,-0.0911 0.49117,-2.249346 1.09148,-4.796106 0.60031,-2.54676 1.09148,-4.70746 1.09148,-4.80155 0,-0.094 -1.32206,-0.14382 -2.93791,-0.11047 l -2.93789,0.0606 -0.85597,3.6386 c -0.47078,2.00122 -0.99288,4.20918 -1.16022,4.90657 l -0.30426,1.268006 h -3.08743 c -1.6981,0 -3.08745,-0.0832 -3.08745,-0.18497 z m 16.34529,-17.779856 c 0.61509,-2.60346 1.11835,-4.83624 1.11835,-4.96172 0,-0.14765 -1.02421,-0.22815 -2.9029,-0.22815 h -2.9029 l -0.35998,1.48852 c -0.19799,0.81868 -0.69617,2.92741 -1.10706,4.68606 -0.4109,1.75867 -0.78191,3.32161 -0.82446,3.47321 -0.0598,0.21309 0.59645,0.27565 2.89162,0.27565 h 2.96898 z m 9.13387,16.47631 c 0.19224,-0.81868 1.59856,-6.77212 3.12517,-13.22986 l 2.77564,-11.74135 8.23156,-10e-4 c 4.52736,-7.7e-4 8.23155,0.0582 8.23155,0.13109 0,0.12229 -0.60027,2.693 -1.47523,6.31775 l -0.3593,1.48852 h -1.35665 c -0.96549,0 -1.35585,-0.0795 -1.35391,-0.27565 9.8e-4,-0.15161 0.20614,-1.06953 0.45477,-2.03982 0.24861,-0.97029 0.45203,-1.89026 0.45204,-2.04438 2e-5,-0.21935 -0.80008,-0.26725 -3.68341,-0.22052 l -3.68343,0.0597 -2.31484,9.70292 c -1.27317,5.33659 -2.31703,9.72771 -2.31969,9.75804 -0.003,0.0304 1.66834,0.0551 3.71336,0.0551 h 3.7182 l 0.47677,-1.92956 c 0.26222,-1.06125 0.51828,-2.10322 0.56901,-2.31547 0.0772,-0.32289 0.31303,-0.3859 1.44432,-0.3859 0.89581,0 1.35209,0.0854 1.35209,0.25298 0,0.13916 -0.37304,1.80133 -0.82897,3.69374 -0.45593,1.89239 -0.87075,3.61438 -0.92182,3.826636 -0.0867,0.36021 -0.64245,0.38591 -8.34479,0.38591 h -8.25193 z m 21.50476,1.206336 c 0.051,-0.16104 1.47195,-6.117506 3.15772,-13.236566 l 3.06501,-12.94376 h 3.11484 3.11484 l -1.52167,6.44711 c -0.83692,3.54591 -1.52168,6.52954 -1.52168,6.63028 0,0.1007 0.22451,0.15176 0.4989,0.11332 0.40163,-0.0562 1.32688,-1.25197 4.74629,-6.1341 2.33607,-3.33538 4.39653,-6.28999 4.5788,-6.56579 0.32446,-0.49095 0.39644,-0.50019 3.43472,-0.44104 l 3.10331,0.0604 -5.16755,7.38745 -5.16754,7.38744 0.79658,0.0667 c 0.92029,0.0771 0.65735,-0.68176 2.26923,6.54892 0.51372,2.30444 0.97625,4.36593 1.02785,4.581096 0.0877,0.36546 -0.1126,0.38721 -3.04532,0.33078 l -3.13913,-0.0603 -1.03899,-4.668876 c -0.57145,-2.56787 -1.09354,-4.77583 -1.16019,-4.90658 -0.16485,-0.32333 -2.40726,-0.30809 -2.57325,0.0175 -0.0716,0.14037 -0.63306,2.34834 -1.24776,4.90658 l -1.11762,4.651376 -3.15004,0.0605 c -2.55884,0.0492 -3.13265,0.006 -3.05735,-0.23237 z m -74.283798,0.10096 c 0,-0.15813 4.842896,-20.730096 5.836394,-24.792166 l 0.36405,-1.48851 h 3.084814 c 1.69665,0 3.08481,0.0511 3.08481,0.11354 0,0.0624 -0.53209,2.33216 -1.18243,5.04381 -0.65034,2.71165 -1.18243,5.04219 -1.18243,5.17896 0,0.17776 1.26303,0.24869 4.4283,0.24869 h 4.42831 l 1.25647,-5.29191 1.25647,-5.2919 3.1237,-5.9e-4 3.12369,-6e-4 -0.30404,1.27173 c -0.16723,0.69946 -1.57289,6.65285 -3.1237,13.22977 l -2.81965,11.958026 -3.13229,0.001 c -2.42672,0.001 -3.11465,-0.0606 -3.05402,-0.27416 0.043,-0.15161 0.65843,-2.756516 1.36751,-5.788686 0.70908,-3.03215 1.33215,-5.68841 1.3846,-5.90281 0.0896,-0.36642 -0.17432,-0.38626 -4.40165,-0.33078 l -4.497007,0.0589 -1.248957,5.2925 c -0.68693,2.91088 -1.33287,5.66464 -1.43544,6.11946 l -0.18649,0.826946 h -3.085507 c -1.697028,0 -3.085507,-0.0818 -3.085507,-0.18182 z"
       style="fill:#e1f6e9;stroke-width:0.200289;fill-opacity:1"
       id="path1569" /><path
       style="fill:#00c887;stroke:none;stroke-width:19.514;stroke-dasharray:none;stroke-opacity:1;paint-order:fill markers stroke"
       d="m 13.877251,111.91875 -1.695975,6.35 75.395807,0 v -6.35 z"
       id="path1600"
       sodipodi:nodetypes="ccccc" /><path
       style="fill:#00c887;stroke:none;stroke-width:19.514;stroke-dasharray:none;stroke-opacity:1;paint-order:fill markers stroke"
       d="m 170.92083,111.91875 0.012,6.35 8.54286,0 1.7639,-6.35 z"
       id="path1602"
       sodipodi:nodetypes="ccccc" /><path
       style="fill:#00c887;stroke:none;stroke-width:19.514;stroke-dasharray:none;stroke-opacity:1;paint-order:fill markers stroke"
       d="m 82.15312,111.91875 0.012,6.35 h 8.54286 l 1.7639,-6.35 z"
       id="path1602-7"
       sodipodi:nodetypes="ccccc" /><path
       style="fill:#00c887;stroke:none;stroke-width:19.514;stroke-dasharray:none;stroke-opacity:1;paint-order:fill markers stroke"
       d="m 177.18263,118.26875 v -6.35 h -9.61318 l -1.7639,6.35 z"
       id="path1602-0"
       sodipodi:nodetypes="ccccc" /><path
       style="fill:#00c887;stroke:#00c887;stroke-width:0.0866666;stroke-dasharray:none;stroke-opacity:1;paint-order:fill markers stroke"
       d="m 43.65625,105.83333 h 1.322917 l 2.38125,-4.23333 0.79375,-2.910417 h -3.175 L 44.714583,101.6 Z"
       id="path3257"
       sodipodi:nodetypes="ccccccc" /></g></svg>
