<?xml version="1.0" encoding="UTF-8" standalone="no"?>
<!-- Created with Inkscape (http://www.inkscape.org/) -->

<svg
   width="210mm"
   height="297mm"
   viewBox="0 0 210 297"
   version="1.1"
   id="svg5"
   xml:space="preserve"
   inkscape:version="1.2.2 (b0a84865, 2022-12-01)"
   sodipodi:docname="banner.svg"
   inkscape:export-filename="banner.png"
   inkscape:export-xdpi="300"
   inkscape:export-ydpi="300"
   xmlns:inkscape="http://www.inkscape.org/namespaces/inkscape"
   xmlns:sodipodi="http://sodipodi.sourceforge.net/DTD/sodipodi-0.dtd"
   xmlns="http://www.w3.org/2000/svg"
   xmlns:svg="http://www.w3.org/2000/svg"><sodipodi:namedview
     id="namedview7"
     pagecolor="#ffffff"
     bordercolor="#000000"
     borderopacity="0.25"
     inkscape:showpageshadow="2"
     inkscape:pageopacity="0.0"
     inkscape:pagecheckerboard="0"
     inkscape:deskcolor="#d1d1d1"
     inkscape:document-units="mm"
     showgrid="false"
     inkscape:zoom="1.1049205"
     inkscape:cx="309.07201"
     inkscape:cy="254.31694"
     inkscape:window-width="1920"
     inkscape:window-height="973"
     inkscape:window-x="1512"
     inkscape:window-y="25"
     inkscape:window-maximized="0"
     inkscape:current-layer="layer1"><inkscape:grid
       type="xygrid"
       id="grid314" /></sodipodi:namedview><defs
     id="defs2" /><g
     inkscape:label="Layer 1"
     inkscape:groupmode="layer"
     id="layer1"><rect
       style="fill:#0f1e23;stroke:#00c887;stroke-width:0.0839976;paint-order:fill markers stroke"
       id="rect477"
       width="209.95638"
       height="44.7756"
       x="0.0016299486"
       y="21.552956" /><g
       id="g1772"
       transform="translate(-2.2983485,-56.280964)"><text
         xml:space="preserve"
         style="font-weight:bold;font-size:31.2749px;font-family:Futura;-inkscape-font-specification:'Futura Bold';text-align:center;text-anchor:middle;fill:#00c887;stroke:none;stroke-width:13.2596;stroke-dasharray:none;stroke-opacity:1;paint-order:fill markers stroke"
         x="56.565357"
         y="138.26279"
         id="text1409"
         transform="scale(1.3563731,0.73726027)"><tspan
           sodipodi:role="line"
           id="tspan1407"
           style="font-style:italic;font-variant:normal;font-weight:500;font-stretch:normal;font-family:Futura;-inkscape-font-specification:'Futura Medium Italic';stroke:none;stroke-width:13.2596;stroke-dasharray:none"
           x="56.565357"
           y="138.26279">[<tspan
   style="font-size:9.58844px;stroke-width:13.2596"
   id="tspan1588"><tspan
   style="font-size:7.20213px;stroke-width:13.2596"
   id="tspan7309"> </tspan>     </tspan>]</tspan></text><path
         style="fill:#e1f6e9;fill-opacity:1;stroke-width:0.127781"
         d="m 58.507281,102.87103 c 0,-0.10315 0.935903,-3.898709 2.012464,-8.444704 l 1.957387,-8.265451 h 6.776886 c 6.398006,0 6.773773,0.01377 6.721232,0.246205 -0.03061,0.135413 -0.622792,2.636151 -1.315963,5.557195 l -1.26031,5.310986 H 68.61164 63.824303 l -0.181408,0.756462 c -0.09977,0.416054 -0.403404,1.698075 -0.674733,2.848947 l -0.493327,2.09249 -2.011316,0.0386 c -1.591022,0.0306 -1.956238,0.008 -1.956238,-0.1407 z m 11.402444,-7.844626 c 0.100241,-0.196609 1.567873,-6.346862 1.567873,-6.570315 0,-0.147482 -0.552264,-0.184886 -2.729834,-0.184886 -2.72074,0 -2.730203,0.0011 -2.840626,0.316549 -0.141126,0.403216 -1.509033,6.230948 -1.509033,6.428977 0,0.196692 5.411432,0.206192 5.51162,0.0097 z m 5.673498,7.770886 c 0.554682,-2.30443 3.902326,-16.516305 3.902326,-16.566699 0,-0.03834 3.870369,-0.06972 8.60082,-0.06972 h 5.77544 l -0.07866,0.386893 c -0.04326,0.212792 -0.806196,3.467696 -1.695411,7.233118 -0.889216,3.765433 -1.616757,6.883438 -1.616757,6.928908 0,0.0455 0.449581,0.0827 0.99907,0.0827 h 0.999068 l -0.07798,0.38689 c -0.04288,0.2128 -0.156708,0.71928 -0.252931,1.12551 l -0.174957,0.73862 h -6.80696 c -9.118859,0 -9.629179,-0.0131 -9.573076,-0.24621 z m 12.239359,-7.843381 c 0.750467,-3.17253 1.398058,-5.973988 1.439079,-6.225469 l 0.07458,-0.457237 h -1.716255 -4.541637 l -0.114547,0.316549 c -0.111017,0.306794 -2.897966,11.971598 -2.897966,12.129468 0,0.0431 2.073966,0.0619 4.608814,0.0417 l 1.783436,-0.0367 z"
         id="path438"
         sodipodi:nodetypes="sscssscccssccsscsssscccsscsssscsscscsscccssccs" /><text
         xml:space="preserve"
         style="font-style:normal;font-variant:normal;font-weight:bold;font-stretch:normal;font-size:15.5707px;line-height:0;font-family:Futura;-inkscape-font-specification:'Futura Bold';text-align:center;text-anchor:middle;fill:#00c887;stroke-width:6.65155;stroke-linejoin:round"
         x="119.05021"
         y="123.10413"
         id="text596"
         transform="scale(1.0502661,0.95213965)"><tspan
           sodipodi:role="line"
           id="tspan594"
           style="font-style:normal;font-variant:normal;font-weight:bold;font-stretch:normal;font-family:Futura;-inkscape-font-specification:'Futura Bold';stroke-width:6.65155"
           x="119.05021"
           y="123.10413">2025</tspan></text><path
         d="m 117.88461,103.0577 c 0,-0.0974 2.93127,-12.541008 3.72542,-15.814964 l 0.23036,-0.94965 h 5.85598 c 3.22079,0 5.85598,0.0363 5.85598,0.08062 0,0.05825 -3.33531,14.209184 -3.90212,16.555804 -0.0537,0.22194 -0.25308,0.2462 -2.02463,0.2462 -1.08083,0 -1.96515,-0.0475 -1.96515,-0.10566 0,-0.0581 0.31336,-1.43505 0.69635,-3.05984 0.38298,-1.624787 0.69634,-3.003276 0.69634,-3.063304 0,-0.05997 -0.84345,-0.09175 -1.87433,-0.07048 l -1.87433,0.03866 -0.54609,2.321364 c -0.30035,1.27674 -0.63344,2.68539 -0.7402,3.13031 l -0.19412,0.80896 h -1.96972 c -1.08336,0 -1.96974,-0.0531 -1.96974,-0.118 z m 10.42801,-11.34324 c 0.39242,-1.660963 0.71349,-3.085438 0.71349,-3.165493 0,-0.0942 -0.65343,-0.145555 -1.852,-0.145555 h -1.852 l -0.22966,0.94965 c -0.12632,0.522304 -0.44415,1.867637 -0.70629,2.989626 -0.26214,1.122001 -0.49884,2.11913 -0.52599,2.215848 -0.0382,0.135948 0.38053,0.17586 1.84481,0.17586 h 1.89415 z m 5.82725,10.5116 c 0.12265,-0.5223 1.01986,-4.320493 1.99381,-8.440421 l 1.77081,-7.49078 5.2516,-6.38e-4 c 2.88838,-4.91e-4 5.25159,0.03713 5.25159,0.08363 0,0.07802 -0.38297,1.718088 -0.94118,4.030617 l -0.22922,0.94965 h -0.86552 c -0.61597,0 -0.86501,-0.05072 -0.86377,-0.17586 6.2e-4,-0.09672 0.13151,-0.682342 0.29013,-1.30137 0.15861,-0.619029 0.28839,-1.205954 0.2884,-1.30428 1e-5,-0.139941 -0.51044,-0.170501 -2.34996,-0.140688 l -2.34996,0.03809 -1.47683,6.190297 c -0.81226,3.404652 -1.47823,6.206113 -1.47992,6.225463 -0.002,0.0194 1.06437,0.0352 2.36906,0.0352 h 2.37214 l 0.30418,-1.231028 c 0.16729,-0.677059 0.33065,-1.341818 0.36301,-1.47723 0.0493,-0.205998 0.19971,-0.246197 0.92146,-0.246197 0.57151,0 0.86261,0.05448 0.86261,0.161397 0,0.08878 -0.238,1.149217 -0.52887,2.356538 -0.29088,1.20732 -0.55553,2.30592 -0.58811,2.44133 -0.0553,0.22981 -0.40987,0.24621 -5.32383,0.24621 h -5.26459 z m 13.71968,0.76963 c 0.0325,-0.10275 0.93907,-3.902869 2.01457,-8.444707 l 1.95542,-8.257897 h 1.98722 1.98721 l -0.9708,4.113145 c -0.53394,2.26223 -0.9708,4.165735 -0.9708,4.230005 0,0.06424 0.14323,0.09682 0.31828,0.0723 0.25624,-0.03585 0.84653,-0.798735 3.02806,-3.91345 1.49037,-2.127915 2.80491,-4.012906 2.92119,-4.188862 0.207,-0.313217 0.25292,-0.319112 2.19129,-0.281376 l 1.97986,0.03853 -3.2968,4.713066 -3.29681,4.71306 0.50821,0.04255 c 0.58713,0.04919 0.41938,-0.434952 1.44773,4.178096 0.32774,1.4702 0.62283,2.78539 0.65575,2.92266 0.0559,0.23316 -0.0718,0.24704 -1.94286,0.21104 l -2.00272,-0.0385 -0.66285,-2.97867 c -0.36458,-1.638255 -0.69766,-3.046896 -0.74018,-3.130312 -0.10518,-0.206279 -1.53579,-0.196556 -1.64169,0.01117 -0.0457,0.08955 -0.40389,1.4982 -0.79605,3.130312 l -0.71303,2.9675 -2.00967,0.0386 c -1.63249,0.0314 -1.99857,0.004 -1.95053,-0.14825 z m -47.3918,0.0644 c 0,-0.10089 3.08969,-13.225451 3.72352,-15.816982 l 0.23226,-0.949644 h 1.96806 c 1.08243,0 1.96805,0.0326 1.96805,0.07244 0,0.03981 -0.33946,1.487878 -0.75437,3.217865 -0.4149,1.729986 -0.75437,3.21683 -0.75437,3.304087 0,0.113408 0.8058,0.15866 2.82518,0.15866 h 2.82519 l 0.80161,-3.376148 0.8016,-3.376141 1.99287,-3.76e-4 1.99286,-3.83e-4 -0.19397,0.811342 c -0.10669,0.446243 -1.00348,4.244404 -1.99287,8.440366 l -1.79889,7.629014 -1.99835,6.4e-4 c -1.5482,6.4e-4 -1.98709,-0.0387 -1.94841,-0.17491 0.0274,-0.0967 0.42007,-1.75861 0.87245,-3.693082 0.45238,-1.93446 0.84989,-3.629108 0.88335,-3.765892 0.0572,-0.233769 -0.11121,-0.246427 -2.80818,-0.211032 l -2.86901,0.03758 -0.79681,3.376524 c -0.43825,1.857092 -0.85035,3.613942 -0.91579,3.904112 l -0.11898,0.52758 h -1.9685 c -1.08267,0 -1.9685,-0.0522 -1.9685,-0.116 z"
         style="fill:#e1f6e9;fill-opacity:1;stroke-width:0.127781"
         id="path1569" /><path
         style="fill:#00c887;stroke:none;stroke-width:12.4496;stroke-dasharray:none;stroke-opacity:1;paint-order:fill markers stroke"
         d="m 51.337285,110.43409 -1.082003,4.05119 h 48.101232 v -4.05119 z"
         id="path1600"
         sodipodi:nodetypes="ccccc" /><path
         style="fill:#00c887;stroke:none;stroke-width:12.4496;stroke-dasharray:none;stroke-opacity:1;paint-order:fill markers stroke"
         d="m 151.5284,110.43409 0.008,4.05119 h 5.45019 l 1.12534,-4.05119 z"
         id="path1602"
         sodipodi:nodetypes="ccccc" /><path
         style="fill:#00c887;stroke:none;stroke-width:12.4496;stroke-dasharray:none;stroke-opacity:1;paint-order:fill markers stroke"
         d="m 94.896119,110.43409 0.0077,4.05119 h 5.450201 l 1.12534,-4.05119 z"
         id="path1602-7"
         sodipodi:nodetypes="ccccc" /><path
         style="fill:#00c887;stroke:none;stroke-width:12.4496;stroke-dasharray:none;stroke-opacity:1;paint-order:fill markers stroke"
         d="m 155.52332,114.48528 v -4.05119 h -6.13304 l -1.12534,4.05119 z"
         id="path1602-0"
         sodipodi:nodetypes="ccccc" /><path
         style="fill:#00c887;stroke:#00c887;stroke-width:0.0552918;stroke-dasharray:none;stroke-opacity:1;paint-order:fill markers stroke"
         d="m 70.335776,106.5517 h 0.843998 l 1.519197,-2.70079 0.506399,-1.8568 h -2.025596 l -0.1688,1.8568 z"
         id="path3257"
         sodipodi:nodetypes="ccccccc" /></g></g></svg>
